
<svg version="1.1" id="Layer_1" xmlns="http://www.w3.org/2000/svg" xmlns:xlink="http://www.w3.org/1999/xlink" x="0px" y="0px"
	 width="198.667px" height="197.667px" viewBox="0 0 198.667 197.667" enable-background="new 0 0 198.667 197.667"
	 xml:space="preserve">

<! ---- Stroke Paths ------ >
<path fill="none" stroke="#66C3FF" stroke-width="15" stroke-miterlimit="10" d="M96.833,190.167
	c-49.337,0-89.333-39.996-89.333-89.333"/>
<path fill="none" stroke="#66C3FF" stroke-width="15" stroke-miterlimit="10" d="M191.167,100.833
	c0,49.337-39.996,89.333-89.333,89.333"/>
<path fill="none" stroke="#FF5714" stroke-width="15" stroke-miterlimit="10" d="M101.833,7.5c49.337,0,89.333,39.996,89.333,89.333
	"/>
<path fill="none" stroke="#DCE2EB" stroke-width="15" stroke-miterlimit="10" d="M7.5,96.833C7.5,47.496,47.496,7.5,96.833,7.5"/>

<! ----- Logo Letters ----- >
<g>
	<path class="logo-letter" fill="#66C3FF" d="M41.188,66.662l4.319,4.527h-1.013v0.506h0.238l1.281-0.238l0.506,0.745c-1.013,0-1.519,0.169-1.519,0.506
		l-1.281-0.238h-1.251c0,0.238,0.248,0.487,0.745,0.745H45c0,0.357,0.248,1.033,0.745,2.025c-0.338,0.06-0.506,0.229-0.506,0.506
		c0.834,0.437,1.261,0.774,1.281,1.013c-0.179,0-0.268,0.089-0.268,0.268h0.774v0.745h-0.506v0.745h1.013
		c0-0.179,0.079-0.427,0.238-0.745c-0.338,0-0.506-0.168-0.506-0.506h0.268l1.251,0.238v-0.983c-0.497,0-0.745-0.168-0.745-0.506
		h0.506c0.218,0,0.466,0.497,0.745,1.489c0.536,0,1.042,1.688,1.519,5.063H50.54l0.268,0.506c-0.02,0.238-0.437,0.576-1.251,1.013
		h-0.774v-1.251c-0.497,0-0.745-0.258-0.745-0.774H47.77c0,0.695-0.08,1.37-0.238,2.025c0.337,0.06,0.506,0.229,0.506,0.506
		c0,0.298-0.596,0.725-1.787,1.281l-0.506-0.268h-0.506l0.268,0.506v0.238c-1.748,0.774-3.187,1.619-4.319,2.532h-0.745v-16.68
		h0.745v-0.745h-0.745v-2.8C40.443,67.427,40.691,66.762,41.188,66.662z M62.424,78.785v7.327h-0.238l-1.013-0.745h-1.281
		l-1.251,0.238l0.238,0.506v0.238c-0.159,0.517-0.655,0.774-1.489,0.774h-0.268c0-0.675-0.08-1.013-0.238-1.013
		c-1.926,0.179-3.197,0.596-3.813,1.251h-1.519v0.268c0.576,0,1.002,0.08,1.281,0.238c-0.179,0.556-0.517,0.894-1.013,1.013
		c-0.278,0-0.705-0.417-1.281-1.251c-1.668,0.258-2.502,0.675-2.502,1.251l0.238,1.281c-0.497,0-0.745,0.338-0.745,1.013h-0.774
		l0.268-0.506c0-0.238-0.258-0.496-0.774-0.774c-1.251,0.219-1.926,0.556-2.025,1.013v0.268l1.519,0.238l-0.238,0.506
		c0.973,0,2.571,1.599,4.795,4.795v0.268l0.506-0.268c0,0.278,2.363,2.562,7.089,6.851v-0.268c-0.238,0-1.251-1.092-3.038-3.276
		h0.506c4.09,0.159,6.443,0.238,7.059,0.238v1.519h-0.506v1.013h0.506v6.821c-1.966,0.338-5.59,1.271-10.872,2.8
		c0-0.179-0.08-0.268-0.238-0.268c0,0.517-1.43,0.854-4.289,1.013c0-0.854-0.934-1.529-2.8-2.025
		c0.04,0.258,1.052,1.102,3.038,2.532c-0.755,0-2.522,0.417-5.302,1.251c-0.636,0-1.142,0.169-1.519,0.506v-6.046
		c0.179,0,1.271,0.586,3.276,1.757h0.268v-0.506c-2.045-0.754-3.227-1.509-3.544-2.264v-16.68c0-0.337,1.013-0.844,3.038-1.519
		v-0.268l0.506,0.268h0.745c0-0.258,0.258-0.596,0.774-1.013v-0.268h-1.013v-0.238h-0.268v0.506c0.179,0,0.268,0.08,0.268,0.238
		c-0.636,0-1.311,0.258-2.025,0.774l-0.506-0.268c0,0.338-0.169,0.506-0.506,0.506h-1.013v-0.506c0.556,0,1.231-0.248,2.025-0.745
		c1.35-0.477,2.025-0.983,2.025-1.519c0.437,0,1.022,0.249,1.757,0.745h0.268v-0.506h-0.506v-0.238c0-0.218,0.675-0.645,2.025-1.281
		v-0.238c0.834,0,1.251,0.249,1.251,0.745h0.745V86.35l-1.251-0.238v-0.238c0.477-1.013,1.489-1.519,3.038-1.519l-0.268,0.506
		l0.268,0.506c0.317-0.179,0.566-0.268,0.745-0.268l-0.238-0.506v-0.506c0.337-0.615,2.194-1.539,5.57-2.77
		c0.04-0.337,0.208-0.506,0.506-0.506h1.757C60.161,79.917,60.915,79.242,62.424,78.785z M60.667,110.893h0.506
		c0.06,0.834,0.477,1.251,1.251,1.251v29.815c-0.417,1.013-1.092,1.519-2.025,1.519h-6.821c-0.953,0-3.564-2.353-7.833-7.059
		c-3.535-3.019-5.302-5.123-5.302-6.314v-13.403c2.661-0.675,4.934-1.35,6.821-2.025h1.519l0.774,0.506h0.238l-0.238-1.281
		c2.681-0.377,4.021-0.794,4.021-1.251C56.06,112.353,58.423,111.767,60.667,110.893z M43.481,65.888
		c0.734,0.517,1.32,0.774,1.757,0.774v1.013L45,68.926c0.337,0.06,0.506,0.229,0.506,0.506v1.013c-0.298,0-1.648-1.261-4.051-3.783
		C42.806,66.662,43.481,66.404,43.481,65.888z M43.481,64.369c0,0.338,0.248,0.506,0.745,0.506v0.506l-2.532,0.774
		C41.694,65.977,42.29,65.381,43.481,64.369z M43.481,99.247v0.268l9.353,9.084v-0.238C47.154,102.484,44.037,99.446,43.481,99.247z
		 M43.719,94.452v0.268c7.049,7.188,10.931,10.971,11.646,11.348v-0.238C50.46,100.468,46.579,96.676,43.719,94.452z M49.051,70.177
		h0.238c0.238,0,0.824,0.596,1.757,1.787h-2.77v-0.506h-1.013v1.013c-0.238,0-0.487-0.258-0.745-0.774
		c0.337-0.397,0.506-0.734,0.506-1.013l1.757,0.268C48.961,70.614,49.051,70.355,49.051,70.177z M62.424,86.856v12.659h-2.532
		l-1.489,0.238c-0.298-0.159-0.636-0.238-1.013-0.238l-0.506,0.238c-0.596-0.159-0.934-0.238-1.013-0.238l-1.519,0.238
		c0-0.278-2.611-2.889-7.833-7.833l0.506-0.238h0.745l0.506,0.238c0-0.496,0.258-0.745,0.774-0.745c0,0.159,0.079,0.238,0.238,0.238
		l-0.238,0.506c0.159,0.338,0.238,0.596,0.238,0.774h0.506V91.92l-0.238-0.506h0.238c0.953,0,3.564,2.363,7.833,7.089h0.268v-0.268
		l-7.357-7.059c0,0.159-0.08,0.238-0.238,0.238c0-0.159-0.089-0.238-0.268-0.238c0.179-0.337,0.268-0.596,0.268-0.774l1.757,0.268
		c0-0.218,1.271-0.894,3.813-2.025l0.506,0.238C58.919,87.532,60.935,86.856,62.424,86.856z M48.544,59.305
		c1.39,1.867,2.313,2.8,2.77,2.8v0.506h-3.038l-1.519-1.519C46.757,60.834,47.353,60.239,48.544,59.305z M48.783,65.888h1.013v0.268
		h-0.745l0.983,1.013L50.54,66.9c0.337,0.179,0.596,0.268,0.774,0.268v0.745h-0.506v1.013h0.745l0.774-0.506
		c0.894,0.556,2.323,1.817,4.289,3.783c-1.092,0-2.185,0.169-3.276,0.506c0-0.337-0.169-0.506-0.506-0.506l-0.506,0.268
		l-2.025-2.532v-0.774l-1.519-0.506v-0.506h0.268l0.506,0.268v-0.268c-0.457-0.655-0.884-0.983-1.281-0.983v-0.506
		C48.614,66.662,48.783,66.404,48.783,65.888z M51.314,56.535l0.745,1.519c-0.338,0.06-0.506,0.229-0.506,0.506l1.519,1.013
		c0.298-0.179,0.635-0.268,1.013-0.268c0.02,0.298,0.784,1.142,2.293,2.532c-0.179,0-0.437,0.089-0.774,0.268
		c-1.509-0.596-2.264-1.191-2.264-1.787h-0.506v0.506c0.457,0.675,0.874,1.013,1.251,1.013v0.268h-1.519l-3.515-3.544L51.314,56.535
		z M62.424,71.964v5.808c-2.185,0.397-3.276,0.904-3.276,1.519H58.88c-0.953,0-1.876-0.337-2.77-1.013l-0.238,0.506v0.238
		l0.745,1.013c-0.338,0.06-0.506,0.229-0.506,0.506l0.268,0.506c-1.37,0-2.552,0.427-3.544,1.281h-0.774
		c0-0.437-0.169-0.864-0.506-1.281v-1.251c-0.497,0-0.745-0.675-0.745-2.025c0.317-0.179,0.566-0.268,0.745-0.268v-0.238
		c-0.179,0-0.427-0.079-0.745-0.238v0.477h-0.506c0-0.258-0.169-0.585-0.506-0.983v-1.013h0.238l0.506,0.238
		c0-1.509,0.764-2.264,2.293-2.264l2.025,1.757v-0.238c-0.318,0-0.824-0.596-1.519-1.787C58.165,72.719,61.193,72.302,62.424,71.964
		z M50.034,115.42l-0.238,0.506c1.211,0.854,2.134,1.281,2.77,1.281h0.268v-0.268c0-0.337-0.338-0.506-1.013-0.506v-0.238
		l0.238-0.506h-0.238l-1.281,0.238C50.54,115.589,50.371,115.42,50.034,115.42z M51.314,119.978c2.78,3.991,4.468,6.94,5.063,8.846
		c1.35,0.953,2.025,1.628,2.025,2.025h0.477l-2.77-3.276c-0.874-3.713-1.966-5.57-3.276-5.57c0-0.298-0.338-0.973-1.013-2.025
		H51.314z M54.084,54.778c0.337,0,0.933,0.169,1.787,0.506c0.04-0.337,0.208-0.506,0.506-0.506h3.276c1.33,0,2.253,0.506,2.77,1.519
		v4.795h-1.251v-0.506h-0.774c-0.437,0.675-1.698,1.092-3.783,1.251c0-0.278-1.688-2.125-5.063-5.54
		C52.148,55.284,52.992,54.778,54.084,54.778z M61.68,62.611h0.745v8.846c-0.556,0-1.231,0.169-2.025,0.506
		c-0.159,0-0.238-0.089-0.238-0.268c-1.509,0.338-2.602,0.506-3.276,0.506c-0.973-1.291-2.75-3.396-5.332-6.314
		c1.35,0,2.025-0.337,2.025-1.013h0.774c0,0.298,1.35,1.559,4.051,3.783v-0.238c-2.204-2.204-3.306-3.465-3.306-3.783
		c1.529,0,2.293-0.337,2.293-1.013h1.251c0.377-0.298,1.3-0.556,2.77-0.774C61.412,62.691,61.501,62.611,61.68,62.611z
		 M53.34,116.701v0.238l0.238,0.506c-0.159,0.298-0.238,0.636-0.238,1.013c0.377,0,0.625,0.427,0.745,1.281h0.268v-1.519h-0.506
		v-0.268c0.496,0,0.745-0.168,0.745-0.506c-0.159-0.317-0.238-0.566-0.238-0.745H53.34z M54.084,90.401v0.506h0.506v1.519h0.268
		c0-1.35,0.079-2.025,0.238-2.025h0.268v-0.238h-0.268C54.799,90.322,54.461,90.401,54.084,90.401z M58.88,81.048l-0.238,0.506
		c0.496,0,0.745,0.338,0.745,1.013c-0.159,0-0.238,0.089-0.238,0.268c0.675,0,1.013,0.417,1.013,1.251h0.506v-0.745
		c-0.338,0-0.506-0.089-0.506-0.268l0.238-1.251L58.88,81.048z M67.994,54.778h13.135c1.866,0,2.8,0.417,2.8,1.251h0.238v-0.506
		c0.218,0,0.973,0.765,2.264,2.293h-0.238l-0.506-0.268c-0.298,0.179-0.636,0.268-1.013,0.268c-0.715-0.516-1.39-0.774-2.025-0.774
		c0,0.377,0.427,0.636,1.281,0.774c0,0.536-1.013,0.953-3.038,1.251h-0.268v-0.745c0-0.854-0.417-1.449-1.251-1.787h-0.268
		l-0.238,1.787c0.834,0.04,1.251,0.288,1.251,0.745l-14.893,1.757v-4.527C65.74,55.284,66.664,54.778,67.994,54.778z M86.431,58.799
		h1.013l4.825,4.557l-0.268,0.506v0.506h0.506l0.506-0.238l2.293,2.532c-0.179,0-0.268,0.08-0.268,0.238l-1.251-0.238
		c-0.874,0.338-3.485,0.755-7.833,1.251v-1.251c0-0.814-0.258-2.502-0.774-5.063c0.179-0.337,0.268-0.596,0.268-0.774l-1.519-0.238
		v1.757h0.506v-0.745h0.506v3.544c0.337,1.191,0.506,1.867,0.506,2.025v0.238c0,0.377-1.013,0.715-3.038,1.013h-1.013
		c-0.179,0-0.268-0.089-0.268-0.268c-3.713,0.973-9.015,1.906-15.905,2.8v-3.276c0-0.437,0.337-0.695,1.013-0.774v-0.238h-0.774
		c0,0.159-0.08,0.238-0.238,0.238v-5.302c2.343-0.179,3.852-0.268,4.527-0.268v0.268c0.556-0.298,2.502-0.725,5.838-1.281V60.08
		l1.757,0.238h0.745c0.337,0,0.506-0.168,0.506-0.506l1.281,0.268h2.264c1.191-0.337,1.866-0.506,2.025-0.506h0.268
		c0,0.338,0.337,0.506,1.013,0.506c0-0.238,0.328-0.576,0.983-1.013V58.799z M94.294,67.913l0.506,0.238
		c0.278-0.159,0.605-0.238,0.983-0.238v7.595l-2.264,0.506l-1.519-0.268c0,0.556-1.261,1.063-3.783,1.519h-0.774
		c0-0.556-0.08-0.973-0.238-1.251c0.159-0.298,0.238-0.635,0.238-1.013c-0.338,0-0.506-0.258-0.506-0.774v-2.532l-0.745-0.506
		h-0.506v0.774h0.745c0,0.556-0.08,0.973-0.238,1.251c0.159,2.304,0.407,3.733,0.745,4.289l-0.506,0.268h-0.238
		c-0.338,0-0.506-0.248-0.506-0.745h-0.238c0,0.794-0.427,1.38-1.281,1.757c-3.376,1.509-6.662,2.691-9.859,3.544
		c0,0.159-0.08,0.238-0.238,0.238h-0.268v-3.544c0.337,0.179,0.596,0.268,0.774,0.268c0.317-0.179,0.566-0.268,0.745-0.268v-0.506
		c-1.013,0-1.519-0.168-1.519-0.506v-1.251h-7.565v-0.238l3.783-2.293c0.298,0,2.065-0.844,5.302-2.532v-0.506l-0.506,0.268h-0.238
		l-0.506-0.268l0.238,0.506v0.268c-0.119,0-0.625,0.08-1.519,0.238c0-0.238-0.249-0.486-0.745-0.745h-0.506v0.238
		c0,0.179,0.079,0.268,0.238,0.268c0,0.874-1.092,1.718-3.276,2.532c-0.437,0.477-1.529,0.894-3.276,1.251v-4.051l1.251-0.238
		c0.337,0.159,0.596,0.238,0.774,0.238c0.278-0.159,0.605-0.238,0.983-0.238v0.238c0.933-0.278,3.385-0.695,7.357-1.251h0.745v0.745
		h0.268l0.745-0.506h0.745c0,0.517,0.168,0.774,0.506,0.774h1.281v-0.268l-0.268-0.506c0.457-0.675,0.883-1.013,1.281-1.013
		c0.496-0.417,0.745-0.754,0.745-1.013h0.506l2.532,2.025v-0.506h1.757l0.774,0.506v-0.745c-0.517,0-0.774-0.168-0.774-0.506v-0.506
		c1.807-0.337,2.988-0.506,3.544-0.506h0.268c0,0.338,0.079,0.506,0.238,0.506L94.294,67.913z M72.045,107.587l15.161,16.173
		c1.985,1.271,4.766,3.802,8.34,7.595c-0.139,0.377-2.333,2.571-6.583,6.583h-0.506c0-0.675-0.417-1.013-1.251-1.013
		c-0.179-0.338-0.268-0.596-0.268-0.774h-0.506l-0.477,0.268c-3.952-4.547-7.913-8.429-11.884-11.646v0.268
		c5.143,5.341,9.521,9.72,13.135,13.135c0,0.298,0.168,0.725,0.506,1.281c-2.621,2.681-4.309,4.021-5.063,4.021h-4.795
		c-0.1,0-0.517-0.338-1.251-1.013v0.268c0.238,0,0.486,0.248,0.745,0.745h-8.608l-0.745-0.506h-0.238v0.506H67.25
		c-1.351,0-2.025-0.675-2.025-2.025v-1.489h0.238c0,0.675,0.596,1.34,1.787,1.996c-1.351-1.867-2.025-3.038-2.025-3.515v-15.429
		c0.496-1.013,1.251-1.519,2.264-1.519h6.314v-11.378h-4.051c-0.675-0.159-1.013-0.665-1.013-1.519
		C70.625,107.925,71.727,107.587,72.045,107.587z M68.5,65.649l-0.506-0.268h-0.506v0.506c0,0.338,0.337,0.506,1.013,0.506v0.268
		c0,1.092-0.755,1.757-2.264,1.996l-0.268,0.506c0.179,0.338,0.268,0.596,0.268,0.774h0.238c0.536-0.516,1.122-0.854,1.757-1.013
		c0.238-0.675,1.002-1.013,2.293-1.013c0-0.337-0.169-0.506-0.506-0.506l0.238-0.506l-0.506-1.013
		c0.615-0.675,1.042-1.013,1.281-1.013v-0.238h-0.268C69.255,65.074,68.5,65.411,68.5,65.649z M69.007,129.33v0.506
		c0.675,0.754,1.013,1.181,1.013,1.281l-1.519,0.745c0-0.159-0.089-0.238-0.268-0.238c0,0.317-0.159,0.477-0.477,0.477
		c0.317,1.271,0.477,2.035,0.477,2.293c0.278,0,0.615-0.338,1.013-1.013c0.337-0.179,0.596-0.268,0.774-0.268l-0.774-1.251
		c0.516,0,0.774-0.249,0.774-0.745c0.218,0,0.635,0.417,1.251,1.251h-0.745v0.238c1.211,0,2.303,0.844,3.276,2.532
		c1.827,1.787,4.1,3.892,6.821,6.314v-0.238c-2.482-2.701-6.186-6.404-11.11-11.11v-0.774H69.007z M68.5,100.528h0.506
		c1.052,0,2.313,0.08,3.783,0.238l1.281-0.238c0.953,0,3.733,2.691,8.34,8.072h-1.013v1.013h0.238c0.516,0,0.774-0.248,0.774-0.745
		h0.506v1.013c0.675,0.08,1.013,0.328,1.013,0.745c-0.338,0.417-0.506,0.755-0.506,1.013h-1.281l-10.872-9.859v0.268
		c2.145,1.926,3.495,3.356,4.051,4.289c-1.053,0.338-1.807,0.506-2.264,0.506v0.238h1.757c0.06-0.337,0.228-0.506,0.506-0.506h0.268
		c2.283,2.085,5.48,5.54,9.591,10.365l10.604,9.859v4.051h-0.238l-11.378-12.391c-3.336-2.621-8.39-7.337-15.161-14.148h-0.268
		v0.238c0.238,0,1.171,0.934,2.8,2.8l-3.306,0.745v-3.783c0-0.159,0.089-0.238,0.268-0.238l-0.268-0.506v-1.787L68.5,100.528z
		 M70.258,99.247h3.813v0.268c-0.377,0-0.715,0.08-1.013,0.238c-0.616-0.159-1.549-0.238-2.8-0.238V99.247z M71.271,127.066v0.238
		c5.6,5.937,10.236,10.494,13.91,13.671v-0.268C78.31,133.321,73.673,128.774,71.271,127.066z M71.271,137.164v0.268l4.319,4.021
		v-0.238L71.271,137.164z M95.784,76.521v3.276h-0.238c-0.715-1.013-1.221-1.519-1.519-1.519l-0.238,0.506v0.238
		c1.33,1.37,1.996,2.135,1.996,2.293v4.289c0,1.013-0.497,1.768-1.489,2.264H75.321c-1.013-0.496-1.519-1.251-1.519-2.264v-2.77
		h1.281c3.058-0.675,7.009-1.946,11.854-3.813h0.506l-0.238,1.281c0.119,1.172,0.288,1.757,0.506,1.757l-0.268,0.506
		c0.179,0.556,0.516,0.894,1.013,1.013l0.268-0.506c-0.258,0-0.517-0.337-0.774-1.013c0.238,0,0.496-0.506,0.774-1.519
		c-0.338-1.032-0.506-1.708-0.506-2.025l0.506,0.268C90.432,78.11,92.785,77.355,95.784,76.521z M75.321,100.528h0.506
		c1.469,0.159,2.313,0.238,2.532,0.238l0.506-0.238c1.191,0,3.127,1.678,5.808,5.034c3.197,3.217,4.885,4.825,5.063,4.825v0.238
		l-0.268,0.506c0.179,0,0.268,0.089,0.268,0.268l0.506-0.268c2.025,1.906,3.038,2.919,3.038,3.038v0.238
		c-0.179,0-0.437,0.089-0.774,0.268c-2.045,0-3.644-0.923-4.795-2.77c-0.914-0.596-4.955-4.309-12.123-11.14h-0.268V100.528z
		 M76.334,116.939v0.268c1.489,1.271,4.021,3.961,7.595,8.072l7.327,6.583l-4.557-5.302c-0.834-0.596-1.251-1.36-1.251-2.293H85.18
		l-0.506,0.268C84.177,123.859,81.397,121.328,76.334,116.939z M76.602,122.271v0.238c5.937,6.175,10.484,10.643,13.642,13.403
		v-0.268C83.472,128.437,78.925,123.979,76.602,122.271z M80.623,99.247h7.833v0.268c-0.497,0-1.083,0.08-1.757,0.238
		c-0.655-0.159-1.331-0.238-2.025-0.238c0,0.159-0.08,0.238-0.238,0.238v-0.238c-0.179,0-0.268,0.08-0.268,0.238
		c-0.497-0.159-1.678-0.238-3.544-0.238V99.247z M93.014,99.247l1.787,0.268v0.238c0,0.338-0.169,0.506-0.506,0.506
		c-0.298-0.159-0.636-0.238-1.013-0.238c0.04,0.338,0.208,0.506,0.506,0.506h1.757l0.238,1.251v7.595l-1.251,0.238l-0.506-0.238
		c0,0.497-1.261,0.834-3.783,1.013c0-0.397-2.78-3.177-8.34-8.34c0-0.437-0.338-0.695-1.013-0.774v-0.506
		c1.926-0.159,3.018-0.328,3.276-0.506c0.457,0.139,1.469,0.308,3.038,0.506c0.317-0.159,0.566-0.238,0.745-0.238
		s0.268,0.08,0.268,0.238l1.757-0.238h2.532L93.014,99.247z M84.942,111.131c0,0.338,0.923,1.43,2.77,3.276
		c-0.179,0-0.268,0.089-0.268,0.268c0.496,0,2.611,1.768,6.344,5.302v0.268c-0.338,0.04-0.506,0.208-0.506,0.506l0.506,0.238
		l0.238-0.506c-0.159,0-0.238-0.079-0.238-0.238h0.506c0,0.258,0.496,0.844,1.489,1.757c-0.318,0.06-0.477,0.228-0.477,0.506v0.506
		h0.477v2.532c-1.847-1.589-2.77-2.602-2.77-3.038h0.774v-0.238c-1.271,0-2.453-0.933-3.544-2.8l-6.583-6.553v-1.281
		C84.078,111.638,84.505,111.469,84.942,111.131z M84.436,72.708c0,0.517-0.089,1.112-0.268,1.787c0.556,0,0.894,0.506,1.013,1.519
		h0.268c0-0.179,0.079-0.268,0.238-0.268c0-0.834-0.338-1.757-1.013-2.77v-0.268H84.436z M84.674,81.316
		c0.675,0,1.013,0.249,1.013,0.745h1.251V80.81l-0.506,0.238h-0.477l0.238-0.506v-0.238h-0.506
		C85.428,80.304,85.091,80.642,84.674,81.316z M88.963,99.247h3.813v0.268c-0.695,0-1.37,0.08-2.025,0.238
		c-0.675-0.159-1.271-0.238-1.787-0.238V99.247z M95.039,110.387l0.745,1.013v2.77c0,0.338-0.159,0.506-0.477,0.506h-0.268
		c-0.258,0-1.608-1.261-4.051-3.783C93.45,110.556,94.801,110.387,95.039,110.387z M90.988,115.182h0.506
		c1.509,0.497,2.353,0.745,2.532,0.745h0.774v0.506l0.506-0.238l0.477,0.745v3.306C92.586,117.327,90.988,115.639,90.988,115.182z"
		/>
	<path class="logo-letter" fill="#66C3FF" d="M106.477,55.284h29.07c0.834,0,1.251,0.249,1.251,0.745h0.506l-0.238-0.506v-0.238h2.502l1.519,0.238
		l0.506-0.238c0.337,0,0.506,0.08,0.506,0.238l2.532-0.238h21.743v0.238c-1.47,0.517-5.6,1.281-12.391,2.293
		c0,0.238-1.013,0.487-3.038,0.745c-0.318,0-0.993-0.675-2.025-2.025h-0.983v0.268l0.238,0.506
		c-0.318,0.159-0.566,0.238-0.745,0.238c-0.338-0.159-0.596-0.238-0.774-0.238l-0.238,0.506v0.745c0.079,0,0.417-0.079,1.013-0.238
		c0.675,0.238,1.013,0.487,1.013,0.745c-0.914,0-3.276,0.417-7.089,1.251V60.08c-0.159,0-0.834,0.249-2.025,0.745
		c-0.318-0.159-0.566-0.238-0.745-0.238c-0.556,0.338-1.063,0.506-1.519,0.506c0.159,0.556,0.496,0.894,1.013,1.013
		c0.317-0.179,0.566-0.268,0.745-0.268v0.268c0.377-0.179,1.469-0.347,3.276-0.506h1.519c0-0.516,1.608-1.022,4.825-1.519h0.983
		c0.258,0,0.516,0.249,0.774,0.745c-0.675,0-1.013,0.169-1.013,0.506c0.159,0,0.238,0.089,0.238,0.268l-0.506,0.238h-1.251v0.506
		l1.251-0.238l2.532,0.238c1.013-0.834,4.051-1.509,9.114-2.025l0.506,0.268c3.574-1.35,6.017-2.025,7.327-2.025v2.264
		c-0.755,0-1.261,0.089-1.519,0.268c0.218,0.834,0.466,1.251,0.745,1.251l0.774-0.506v12.152c0,1.013-0.506,1.768-1.519,2.264
		h-15.429v-0.238c0.675,0,1.013-0.337,1.013-1.013l1.281,0.238h0.238v-0.238l-0.238-1.281h-0.506c-0.457,0-0.963,0.169-1.519,0.506
		l-0.506-0.238c-0.556,0.338-1.063,0.506-1.519,0.506l0.238-0.506v-0.268h-0.238c-0.417,0.338-0.834,0.506-1.251,0.506v0.268
		c0,0.338,0.248,0.506,0.745,0.506v0.238h-0.506v0.506c0.496,0,0.745,0.169,0.745,0.506h-3.276v9.859l-4.051-3.783v0.238
		c0.218,0,1.568,1.351,4.051,4.051v3.783l-5.302-5.034l-6.314-5.57v0.238c3.078,2.919,5.014,5.113,5.808,6.583
		c0.179,0,1.439,1.261,3.783,3.783c1.35,1.072,2.025,2.006,2.025,2.8v1.757c-4.667-4.726-10.227-9.779-16.68-15.161v0.238
		c0.973,0.755,4.845,5.143,11.616,13.165c0.337,0,2.025,1.509,5.063,4.527v2.8c-6.632-7.565-12.271-12.957-16.918-16.173
		c-0.02-0.179-0.785-0.854-2.293-2.025v0.238c0.218,0.06,3.594,3.853,10.127,11.378l4.527,4.289v0.268l-0.238,0.506l0.506,0.238
		c0-0.337,0.079-0.506,0.238-0.506c0.437,0.1,1.787,1.281,4.051,3.544v3.783c-9.134-10.286-15.369-16.431-18.705-18.437
		c0-0.298-0.586-0.804-1.757-1.519v0.238c0.179,0,2.869,3.038,8.072,9.114l12.391,11.616v3.813h-0.238
		c0-0.238-1.44-1.847-4.319-4.825v-0.238h0.774v-0.268c-0.179,0-0.437-0.079-0.774-0.238v0.506h-0.506
		c0-0.377-1.261-1.807-3.783-4.289l0.268-0.506v-0.506h-0.506v0.506c-7.407-7.089-11.368-10.633-11.884-10.633v-4.289
		c0-0.159,0.079-0.238,0.238-0.238l-0.238-0.506v-9.114h-20.73c-1.013-0.496-1.519-1.251-1.519-2.264V58.054
		C102.932,56.208,104.113,55.284,106.477,55.284z M114.042,59.305v0.268l5.063,5.57v0.238c-0.377,0-0.715,0.089-1.013,0.268
		l-0.506-0.268c-0.695,0.338-1.202,0.506-1.519,0.506c-0.536-0.774-2.214-2.293-5.034-4.557v0.268c0.198,0,1.628,1.519,4.289,4.557
		h-1.787c0,0.338-0.08,0.506-0.238,0.506l-0.506-0.268c-0.298,0.179-0.636,0.268-1.013,0.268c-0.755-0.536-1.599-1.211-2.532-2.025
		v0.238c0.258,0,0.854,0.596,1.787,1.787V66.9c-4.389,1.053-6.583,1.728-6.583,2.025c4.567-1.013,7.009-1.519,7.327-1.519
		l6.583,6.314v-0.238l-5.838-6.076c1.489-0.159,2.591-0.407,3.306-0.745c1.688,1.509,2.532,2.512,2.532,3.008l0.506-0.238
		l4.021,3.783v-0.238c-0.159,0-2.095-2.104-5.808-6.314v-0.268c1.151-0.496,2.085-0.745,2.8-0.745
		c3.515,3.177,5.282,4.855,5.302,5.034h-0.268l-2.264-0.506v0.774c0,0.338,0.248,0.506,0.745,0.506l1.281-0.268l1.519,0.268
		l0.238-0.506v-0.268c-0.934,0-2.025-0.923-3.276-2.77c-0.338,0-0.506-0.168-0.506-0.506h1.013v-0.238
		c-1.152,0-2.244-0.764-3.276-2.293C118.123,62.691,116.008,60.834,114.042,59.305z M116.842,57.042v0.268
		c0.218,0,2.492,2.353,6.821,7.059c-0.596,0-1.36,0.169-2.293,0.506c0.06,0.338,0.228,0.506,0.506,0.506h0.268
		c0.159,0,0.834-0.168,2.025-0.506c0.715,0.477,1.469,1.072,2.264,1.787v-0.268c-0.238,0-0.745-0.506-1.519-1.519
		c0.516,0,0.774-0.079,0.774-0.238l0.506,0.238h0.745v-0.506c-0.497,0-0.745-0.248-0.745-0.745h-0.774l-1.013,0.745
		C121.925,61.589,119.403,59.146,116.842,57.042z M124.914,73.215c0.854,0.278,1.281,0.785,1.281,1.519h0.506
		c0.238,0,0.486-0.248,0.745-0.745c0-0.258-0.417-0.516-1.251-0.774c0-0.496-0.169-0.745-0.506-0.745
		C125.45,72.47,125.191,72.719,124.914,73.215z M125.182,91.175h0.238c0.576,1.172,4.2,5.212,10.872,12.123l9.859,9.114v3.276
		c-6.91-7.685-13.9-14.763-20.969-21.237V91.175z M125.182,96.983c5.798,6.672,12.033,12.818,18.705,18.437
		c1.509,1.132,2.264,1.807,2.264,2.025v3.813c-1.191-1.032-4.14-4.487-8.846-10.365c-5.322-5.56-9.363-9.442-12.123-11.646V96.983z
		 M125.182,102.553c7.724,8.122,13.701,13.592,17.931,16.412c2.025,2.006,3.038,3.107,3.038,3.306v18.199
		c0,1.668-0.844,2.502-2.532,2.502h-16.173c-1.509,0-2.264-0.923-2.264-2.77v-5.063c1.43-0.159,2.69-0.407,3.783-0.745
		c0-0.238-0.249-0.497-0.745-0.774h-0.774c-0.576,0.516-1.331,0.854-2.264,1.013v-18.199c0-0.159,0.079-0.238,0.238-0.238
		l-0.238-0.506c0-0.179,0.079-0.268,0.238-0.268l-0.238-0.506v-3.008h0.238l10.633,9.859v-0.268
		c-6.91-7.744-10.534-11.616-10.872-11.616v-0.506l0.506-0.774c-0.338,0-0.506-0.168-0.506-0.506v-0.506
		c2.303,2.304,7.605,7.029,15.905,14.178h0.268v-0.268c-0.457,0-1.638-1.261-3.544-3.783l0.268-0.506v-0.268
		c-0.874,0-1.638-0.675-2.293-2.025c-3.594-4.269-7.129-7.883-10.604-10.842V102.553z M137.572,131.862
		c-0.338,0.06-0.506,0.228-0.506,0.506l-0.506-0.268c-2.343,0.675-4.706,1.181-7.089,1.519v0.506h0.268
		c5.56-0.715,8.34-1.301,8.34-1.757c0.457,0.02,1.291,0.774,2.502,2.264h0.774v-0.238c0-0.199-0.506-0.874-1.519-2.025
		c0.198,0,1.122-0.169,2.77-0.506v-0.238H142.1C140.511,131.782,139.002,131.862,137.572,131.862z M130.99,78.517l-0.268,0.506
		v0.774c0,0.675,0.933,1.013,2.8,1.013c0-0.337,0.168-0.506,0.506-0.506v-0.774h-0.774C132.3,79.529,131.545,79.192,130.99,78.517z
		 M133.76,61.837c0,0.517-0.249,0.774-0.745,0.774v0.506h1.519l-1.281,1.013c0.457,0.834,0.794,1.251,1.013,1.251h0.268
		c0.337,0,0.506-0.168,0.506-0.506l-0.506-0.745c0.317-0.179,0.566-0.268,0.745-0.268v-0.745h-0.506
		c0.06-0.337,0.228-0.506,0.506-0.506h1.787v-0.268l-0.268-0.506l-0.506,0.268h-2.025L133.76,61.837z M135.785,77.772v0.238
		l1.281,0.268v0.238c0,0.338-0.258,0.506-0.774,0.506v0.506c0,0.258,1.013,0.596,3.038,1.013v0.268h1.251
		c0.179,0,0.516-0.337,1.013-1.013c-0.159-0.278-0.238-0.705-0.238-1.281h-2.264l-2.025-1.251h-0.774
		C135.954,77.325,135.785,77.494,135.785,77.772z M136.053,67.913c0.496,2.105,0.745,3.704,0.745,4.795
		c0.337,0,0.506-0.168,0.506-0.506l-0.238-1.251c0.238,0,0.486-0.258,0.745-0.774h-1.013V69.67c0.675,0,1.013-0.417,1.013-1.251
		h-1.013C136.798,68.241,136.549,68.072,136.053,67.913z M138.317,64.13v0.238h1.013c1.688-0.457,2.532-0.794,2.532-1.013v-0.238
		L138.317,64.13z M140.581,66.156l0.268,1.251c-0.338,0.179-0.596,0.268-0.774,0.268v0.238l1.281,0.238l0.238-0.477
		c0-0.179-0.08-0.268-0.238-0.268l0.238-0.506l-0.238-0.506c0.159-0.317,0.238-0.566,0.238-0.745h-0.506
		C140.749,65.689,140.581,65.858,140.581,66.156z M143.38,55.791c0,0.834-0.169,1.251-0.506,1.251h-0.268v0.268h1.013l0.268-0.506
		l1.251,0.238c0.337,0,0.506-0.168,0.506-0.506c0-0.337-0.169-0.506-0.506-0.506c0,0.338-0.169,0.506-0.506,0.506h-0.238
		c0-0.496-0.169-0.745-0.506-0.745H143.38z M143.38,131.355c0.04,0.337,0.208,0.506,0.506,0.506c0-0.338,0.079-0.506,0.238-0.506
		h1.787v-0.238h-1.787C143.807,131.276,143.559,131.355,143.38,131.355z M144.631,63.118h0.268l2.264-0.506v-0.268h-1.013
		C145.138,62.522,144.631,62.78,144.631,63.118z M146.418,67.168h-1.519c0.04,0.338,0.208,0.506,0.506,0.506
		c0.556-0.179,1.142-0.268,1.757-0.268v0.506h1.519v-0.506c0-0.258-0.338-0.596-1.013-1.013
		C146.835,66.394,146.418,66.652,146.418,67.168z M167.625,56.029c0.337,0,0.506,0.596,0.506,1.787
		c-5.897,1.172-9.184,1.926-9.859,2.264c-0.914-0.06-1.668-0.397-2.264-1.013h-0.506c-1.847,0.318-2.77,0.824-2.77,1.519
		c0,0.159-0.338,0.407-1.013,0.745h-1.519v-0.238c1.013,0,1.519-0.258,1.519-0.774l-0.774-1.013
		c2.264-0.337,3.703-0.506,4.319-0.506h0.238v-0.477h1.281c0.238,0,1.41-0.337,3.515-1.013v0.238
		C162.542,56.873,164.984,56.367,167.625,56.029z M155.265,66.156c-0.338,0.854-0.506,1.44-0.506,1.757
		c-0.159,0-0.834-0.168-2.025-0.506l-0.268,0.506c1.489,0.834,2.839,1.251,4.051,1.251h1.013c0-0.496,0.337-0.993,1.013-1.489
		v-0.268l-1.251-1.251l-1.281,0.238h-0.238L155.265,66.156z M158.035,62.611l0.506,0.745c-0.338,0.06-0.506,0.229-0.506,0.506
		c0.06,0.338,0.228,0.506,0.506,0.506h0.506c0-0.278,0.417-0.615,1.251-1.013l0.268-1.013l-0.774-0.506h-0.238
		C158.541,61.956,158.035,62.214,158.035,62.611z M160.566,67.168h-0.774v0.745l1.281-0.238h1.013v-0.268l-0.268-0.506
		L160.566,67.168z"/>
</g>
</svg>
